<?xml version="1.0" encoding="utf-8"?>
<!-- Generator: Adobe Illustrator 19.0.0, SVG Export Plug-In . SVG Version: 6.00 Build 0)  -->
<svg version="1.1" id="图层_1" xmlns="http://www.w3.org/2000/svg" xmlns:xlink="http://www.w3.org/1999/xlink" x="0px" y="0px"
	 viewBox="1 1.8 41.2 38.2" style="enable-background:new 1 1.8 41.2 38.2;" xml:space="preserve">
<style type="text/css">
	.st0{fill:#FF5251;}
</style>
<title>资源4</title>
<g id="图层_2">
	<g id="图层_1-2">
		<path class="st0" d="M27.5,40c-0.8,0-1.5-0.6-1.5-1.5c0,0,0,0,0,0v-7.3h-8.9v7.3c0,0.8-0.7,1.5-1.5,1.5c0,0,0,0,0,0H7.4
			c-0.8,0-1.5-0.7-1.5-1.5V19.9l-2.4,2.4c-0.6,0.6-1.5,0.6-2.1,0c-0.6-0.6-0.6-1.5,0-2.1l18.4-18c0.6-0.5,1.4-0.5,2,0l19.9,18
			c0.6,0.6,0.7,1.5,0.1,2.1c-0.6,0.6-1.5,0.7-2.1,0.1l-2.3-2.1v18.2c0,0.8-0.7,1.5-1.5,1.5L27.5,40z M27.5,28.2
			c0.8,0,1.5,0.7,1.5,1.5V37h5.4V17.6L20.9,5.3L9,16.9L8.9,37h5.3v-7.3c0-0.4,0.2-0.8,0.4-1c0.3-0.3,0.7-0.4,1.1-0.4L27.5,28.2z"/>
	</g>
</g>
<polygon class="st0" points="20.6,4.1 7,17.3 7.8,37.8 14.5,38.5 16.6,29.4 28.2,29.6 27.3,37.6 36.5,37.9 36.5,17.8 "/>
</svg>
