<svg xmlns="http://www.w3.org/2000/svg" viewBox="0 0 37.61 38.31"><title>资源 3</title><g id="图层_2" data-name="图层 2"><g id="图层_1-2" data-name="图层 1"><path d="M37.58,34.79A17.89,17.89,0,0,0,25.15,20,11,11,0,1,0,12.54,20C5.7,22.28.67,28,0,35A2.84,2.84,0,0,0,.8,37.29a3.3,3.3,0,0,0,2.38,1h.13l31-.12a3.37,3.37,0,0,0,2.53-1.12A2.86,2.86,0,0,0,37.58,34.79ZM10.8,11a8,8,0,1,1,8.14,8h-.16A8,8,0,0,1,10.8,11ZM34.33,35.18l-31.08.12A.44.44,0,0,1,3,35.25C3.74,27.77,10.5,22.1,18.78,22H19c8.08,0,14.65,5.52,15.63,13.07A.38.38,0,0,1,34.33,35.18Z"/></g></g></svg>