<?xml version="1.0" encoding="utf-8"?>
<!-- Generator: Adobe Illustrator 19.0.0, SVG Export Plug-In . SVG Version: 6.00 Build 0)  -->
<svg version="1.1" id="图层_1" xmlns="http://www.w3.org/2000/svg" xmlns:xlink="http://www.w3.org/1999/xlink" x="0px" y="0px"
	 viewBox="0 1.7 37.6 38.3" style="enable-background:new 0 1.7 37.6 38.3;" xml:space="preserve">
<style type="text/css">
	.st0{fill:#FF5251;}
</style>
<title>资源 3</title>
<g id="图层_2">
	<g id="图层_1-2">
		<path class="st0" d="M37.6,36.5c-0.9-6.9-5.8-12.7-12.4-14.8c5-3.5,6.2-10.3,2.7-15.3S17.5,0.2,12.5,3.7S6.3,14,9.8,19
			c0.7,1.1,1.7,2,2.7,2.7C5.7,24,0.7,29.7,0,36.7c-0.1,0.8,0.2,1.7,0.8,2.3c0.6,0.6,1.5,1,2.4,1h0.1l31-0.1c1,0,1.9-0.4,2.5-1.1
			C37.4,38.1,37.7,37.3,37.6,36.5z M10.8,12.7c0-4.4,3.6-8,8-8c4.4,0,8,3.6,8,8c0,4.4-3.5,7.9-7.9,8h-0.2
			C14.4,20.7,10.8,17.1,10.8,12.7z M34.3,36.9L3.3,37c-0.1,0-0.2,0-0.3,0c0.7-7.5,7.5-13.1,15.8-13.2H19c8.1,0,14.7,5.5,15.6,13.1
			C34.6,36.8,34.4,36.9,34.3,36.9z"/>
	</g>
</g>
<circle class="st0" cx="19.2" cy="12.8" r="9.8"/>
<path class="st0" d="M14.3,22.6c0,0-14.8,6.7-12.5,14.9l1.2,1l32-0.3l1-2.1c0,0-2.7-12.2-13.3-13.5C12,21.3,14.3,22.6,14.3,22.6z"/>
</svg>
